<svg xmlns="http://www.w3.org/2000/svg" width="466" height="45" viewBox="0 0 466 45">
    <g fill="#000" fill-rule="nonzero">
        <path d="M464.376 0h-26.752c-.69 0-1.249.558-1.249 1.249v40.518c0 .69.558 1.249 1.249 1.249h1.975v.726c0 .691.558 1.25 1.25 1.25.69 0 1.248-.559 1.248-1.25v-.726h17.797v.726c0 .691.558 1.25 1.249 1.25.69 0 1.249-.559 1.249-1.25v-.726h1.984c.69 0 1.249-.558 1.249-1.25V1.25c0-.69-.558-1.249-1.249-1.249zm-1.249 40.518h-24.254V17.566h24.254v22.952zm0-25.45h-24.254V2.498h24.254v12.57z"/>
        <path d="M442.54 11.365c.691 0 1.25-.558 1.25-1.249V7.45c0-.691-.559-1.25-1.25-1.25-.69 0-1.249.559-1.249 1.25v2.666c0 .691.558 1.25 1.25 1.25zM442.54 31.624c.691 0 1.25-.558 1.25-1.249v-2.666c0-.691-.559-1.25-1.25-1.25-.69 0-1.249.559-1.249 1.25v2.666c0 .69.558 1.249 1.25 1.249zM405.062 7h-31.896a3.055 3.055 0 0 0-3.052 3.052v30.385a3.055 3.055 0 0 0 3.052 3.052h1.331v.456a1.054 1.054 0 1 0 2.11 0v-.456h25.006v.456a1.054 1.054 0 1 0 2.11 0v-.456h1.331a3.055 3.055 0 0 0 3.052-3.052V10.052A3.044 3.044 0 0 0 405.062 7zm-32.839 11.318h1.878V32.17h-1.878V18.318zm33.781 22.119a.935.935 0 0 1-.935.935h-31.903a.935.935 0 0 1-.935-.935v-6.156h1.877v4.166c0 .584.471 1.055 1.055 1.055h27.916c.584 0 1.055-.471 1.055-1.055V12.042c0-.584-.471-1.055-1.055-1.055h-27.924c-.583 0-1.054.471-1.054 1.055v4.166h-1.878v-6.156c0-.516.419-.935.935-.935h31.904c.516 0 .935.419.935.935v30.385h.007zm-28.35-8.266h-1.444V18.318h1.444a1.054 1.054 0 1 0 0-2.11h-1.444v-3.112h25.8v24.289h-25.8v-3.112h1.444c.583 0 1.054-.471 1.054-1.054 0-.576-.47-1.048-1.054-1.048z"/>
        <path d="M386.017 29.837c-.03.3-.045 1.16 1.047 1.16h4.107c.95 0 1.054-.471 1.054-1.055 0-.09-.359-3.5-.359-3.5a4.024 4.024 0 0 0-2.76-6.95 4.022 4.022 0 0 0-2.753 6.95l-.336 3.395zm3.097-8.235c1.054 0 1.915.86 1.915 1.907a1.92 1.92 0 0 1-.853 1.593 1.071 1.071 0 0 0-.464.988l.284 2.805h-1.765l.284-2.805a1.071 1.071 0 0 0-.464-.988 1.92 1.92 0 0 1-.852-1.593c0-1.055.86-1.907 1.915-1.907zM337.842 7.035h-37.697a3.61 3.61 0 0 0-3.607 3.607v14.19a3.61 3.61 0 0 0 3.607 3.607h37.706a3.61 3.61 0 0 0 3.607-3.607v-14.19a3.624 3.624 0 0 0-3.616-3.607zm1.114 17.797c0 .61-.495 1.105-1.105 1.105h-37.706c-.61 0-1.105-.495-1.105-1.105v-14.19c0-.61.495-1.105 1.105-1.105h37.706c.61 0 1.105.495 1.105 1.105v14.19z"/>
        <path d="M335.376 21.163h-32.764c-.69 0-1.247.557-1.247 1.247 0 .69.557 1.246 1.247 1.246h32.773c.69 0 1.246-.557 1.246-1.246 0-.69-.566-1.247-1.255-1.247zM335.49 11.686c-.689 0-1.246.557-1.246 1.246v.416c0 .69.557 1.246 1.247 1.246.69 0 1.246-.557 1.246-1.246v-.416c0-.69-.557-1.246-1.246-1.246zM335.49 16.407c-.689 0-1.246.557-1.246 1.246v.416c0 .69.557 1.246 1.247 1.246.69 0 1.246-.557 1.246-1.246v-.416a1.25 1.25 0 0 0-1.246-1.246zM305.812 30.349a1.244 1.244 0 0 0-1.512.91l-.928 3.696a1.24 1.24 0 0 0 .91 1.512c.77.176 1.37-.345 1.512-.911l.929-3.695a1.248 1.248 0 0 0-.911-1.512zM314.6 31.79c-.69-.062-1.29.45-1.344 1.14l-.31 3.802c-.052.69.451 1.308 1.141 1.344a1.257 1.257 0 0 0 1.344-1.14l.31-3.802a1.246 1.246 0 0 0-1.141-1.344zM333.687 31.26a1.255 1.255 0 0 0-1.512-.911 1.248 1.248 0 0 0-.91 1.512l.928 3.695c.142.566.752 1.087 1.512.91a1.244 1.244 0 0 0 .91-1.511l-.928-3.696zM323.388 31.79a1.236 1.236 0 0 0-1.14 1.344l.309 3.801a1.262 1.262 0 0 0 1.343 1.14c.69-.044 1.194-.654 1.14-1.343l-.309-3.802a1.247 1.247 0 0 0-1.343-1.14z"/>
        <g>
            <path d="M268.348 29.56h-31.695V10.019c0-.691-.558-1.25-1.249-1.25-.69 0-1.249.559-1.249 1.25V29.56h-3.579a3.618 3.618 0 0 0-3.614 3.614v6.635a3.614 3.614 0 0 0 3.296 3.597v.345c0 .69.558 1.249 1.249 1.249.69 0 1.249-.558 1.249-1.249v-.328h33.404v.328c0 .69.558 1.249 1.25 1.249.69 0 1.248-.558 1.248-1.249v-.345a3.614 3.614 0 0 0 3.295-3.597v-6.635a3.605 3.605 0 0 0-3.605-3.614zm1.116 10.25c0 .61-.496 1.106-1.107 1.106h-37.78a1.108 1.108 0 0 1-1.108-1.107v-6.635c0-.611.496-1.107 1.107-1.107h37.781c.611 0 1.107.496 1.107 1.107v6.635z"/>
            <path d="M233.703 35.238h-.77c-.691 0-1.25.558-1.25 1.25 0 .69.559 1.248 1.25 1.248h.77c.691 0 1.25-.558 1.25-1.249 0-.69-.559-1.249-1.25-1.249zM239.816 35.238h-.771c-.691 0-1.249.558-1.249 1.25 0 .69.558 1.248 1.249 1.248h.77c.692 0 1.25-.558 1.25-1.249 0-.69-.558-1.249-1.25-1.249zM245.937 35.238h-.771c-.69 0-1.249.558-1.249 1.25 0 .69.558 1.248 1.249 1.248h.77c.692 0 1.25-.558 1.25-1.249 0-.69-.558-1.249-1.25-1.249zM252.049 35.238h-.77c-.692 0-1.25.558-1.25 1.25 0 .69.558 1.248 1.25 1.248h.77c.69 0 1.249-.558 1.249-1.249 0-.69-.558-1.249-1.25-1.249zM230.09 4.695c2.931-2.932 7.706-2.932 10.638 0 .248.248 1.063.7 1.772 0a1.256 1.256 0 0 0 0-1.772c-3.916-3.897-10.276-3.897-14.182.01a1.248 1.248 0 1 0 1.772 1.763z"/>
            <path d="M231.657 6.272a1.256 1.256 0 0 0 0 1.771 1.256 1.256 0 0 0 1.772 0 2.807 2.807 0 0 1 3.96 0c.248.248 1.133.638 1.771 0a1.256 1.256 0 0 0 0-1.771 5.312 5.312 0 0 0-7.503 0z"/>
        </g>
        <g>
            <path d="M188.64 7.83h-19.701l13.783-5.412c.638-.248.957-.974.709-1.62a1.26 1.26 0 0 0-1.621-.71l-19.258 7.566-8.132-6.494a1.242 1.242 0 0 0-1.754.195 1.242 1.242 0 0 0 .195 1.754l5.909 4.713h-7.636a3.762 3.762 0 0 0-3.747 3.756v26.867a3.753 3.753 0 0 0 3.623 3.747v1.559c0 .69.558 1.249 1.249 1.249.69 0 1.249-.558 1.249-1.249v-1.55h32.758v1.55c0 .69.558 1.249 1.249 1.249.69 0 1.249-.558 1.249-1.249v-1.56a3.753 3.753 0 0 0 3.623-3.746V11.578a3.748 3.748 0 0 0-3.747-3.747zm1.249 30.615c0 .69-.558 1.249-1.25 1.249h-37.505c-.691 0-1.25-.558-1.25-1.25V11.579c0-.691.559-1.25 1.25-1.25h37.497c.69 0 1.249.559 1.249 1.25v26.867h.009z"/>
            <path d="M176.734 12.862h-23.093c-.691 0-1.25.558-1.25 1.25v21.8c0 .69.559 1.248 1.25 1.248h23.093c.691 0 1.25-.558 1.25-1.249v-21.8c0-.69-.559-1.249-1.25-1.249zm-1.249 21.8H154.89V15.36h20.595v19.302zM183.936 14.395a3.754 3.754 0 0 0-3.747 3.747 3.754 3.754 0 0 0 3.747 3.747 3.754 3.754 0 0 0 3.747-3.747 3.754 3.754 0 0 0-3.747-3.747zm0 5.005c-.691 0-1.25-.558-1.25-1.25 0-.69.559-1.248 1.25-1.248.69 0 1.249.558 1.249 1.249 0 .69-.558 1.249-1.25 1.249zM183.936 24.431c-.691 0-1.25.558-1.25 1.25v1.177c0 .691.559 1.25 1.25 1.25.69 0 1.249-.559 1.249-1.25V25.68c0-.69-.558-1.249-1.25-1.249zM183.936 30.844c-.691 0-1.25.559-1.25 1.25v1.178c0 .69.559 1.249 1.25 1.249.69 0 1.249-.558 1.249-1.25v-1.177c0-.691-.558-1.25-1.25-1.25z"/>
        </g>
        <g>
            <path d="M106.894 37.187a85.861 85.861 0 0 0-.248-4.615c3.888-4.385 6.12-10.417 6.12-16.654 0-3.428-2.506-6.218-5.589-6.218h-6.502a26.059 26.059 0 0 0-1.16-1.914c-2.392-3.552-5.191-5.633-8.15-6.094v-.443c0-.69-.558-1.249-1.249-1.249-.69 0-1.249.558-1.249 1.249v.443c-2.817.434-5.465 2.33-7.769 5.545h-7.467a1.255 1.255 0 0 0-1.187 1.657l3.428 10.08c-1.47 5.324-2.365 11.543-2.551 18.213l-2.215 6.139c-.141.38-.23 1.674 1.178 1.674h35.655c1.772 0 1.196-1.656 1.107-1.834l-2.152-5.979zm-4.96-24.98h5.243c1.701 0 3.092 1.665 3.092 3.711 0 4.757-1.426 9.381-3.978 13.075-1.24-9.841-4.35-16.769-4.358-16.786zM90.106 4.1c2.339 0 4.323 1.453 5.829 3.136H84.287c1.506-1.683 3.482-3.136 5.82-3.136zM75.376 9.735h4.155a35.818 35.818 0 0 0-2.375 5.235l-1.78-5.235zm7.042 0h15.378c1.701 2.144 5.732 10.736 6.564 26.442H75.854c.443-10.807 2.862-20.551 6.564-26.442zm-8.353 32.767l1.373-3.818h29.33l1.373 3.818H74.065z"/>
            <path d="M90.107 12.942c-2.1 0-3.8 1.71-3.8 3.8V29.17c0 2.1 1.71 3.8 3.8 3.8s3.8-1.71 3.8-3.8V16.742c.01-2.09-1.7-3.8-3.8-3.8zM91.41 29.17c0 .718-.584 1.302-1.302 1.302a1.304 1.304 0 0 1-1.302-1.302V16.742c0-.717.585-1.302 1.302-1.302.718 0 1.302.585 1.302 1.302V29.17z"/>
        </g>
        <g>
            <path d="M24.834 0c-6.233 0-11.316 4.96-11.537 11.14A14.42 14.42 0 0 0 .035 25.151c-.008.336 0 1.282 1.247 1.282h26.47c1.228 0 1.255-.946 1.246-1.282-.221-7.461-5.923-13.385-13.217-14.004.221-4.81 4.19-8.646 9.044-8.646 5.004 0 9.07 4.067 9.07 9.07v32.102c0 .69.558 1.246 1.247 1.246.69 0 1.247-.557 1.247-1.246v-32.11C36.389 5.19 31.209 0 24.834 0zm1.565 23.941H2.635A11.932 11.932 0 0 1 14.517 13.58 11.932 11.932 0 0 1 26.399 23.94zM11.29 40.2c-.69 0-1.247.556-1.247 1.246v2.219c0 .69.557 1.247 1.247 1.247.69 0 1.246-.557 1.246-1.247v-2.219c0-.69-.557-1.247-1.246-1.247zM17.744 40.2c-.69 0-1.247.556-1.247 1.246v2.219c0 .69.557 1.247 1.247 1.247.69 0 1.246-.557 1.246-1.247v-2.219c0-.69-.557-1.247-1.246-1.247zM8.063 33.852c-.69 0-1.247.557-1.247 1.246v2.21c0 .69.557 1.247 1.247 1.247.69 0 1.246-.557 1.246-1.247v-2.21c0-.69-.557-1.246-1.246-1.246z"/>
            <path d="M14.517 33.852c-.69 0-1.247.557-1.247 1.246v2.21c0 .69.557 1.247 1.247 1.247.69 0 1.246-.557 1.246-1.247v-2.21c0-.69-.557-1.246-1.246-1.246zM20.97 33.852c-.69 0-1.246.557-1.246 1.246v2.21c0 .69.557 1.247 1.247 1.247.69 0 1.246-.557 1.246-1.247v-2.21a1.25 1.25 0 0 0-1.246-1.246zM4.836 27.495c-.69 0-1.247.557-1.247 1.247v2.219c0 .69.557 1.246 1.247 1.246.69 0 1.247-.557 1.247-1.246v-2.22a1.24 1.24 0 0 0-1.247-1.246zM11.29 27.495c-.69 0-1.247.557-1.247 1.247v2.219c0 .69.557 1.246 1.247 1.246.69 0 1.246-.557 1.246-1.246v-2.22c0-.689-.557-1.246-1.246-1.246zM17.744 27.495c-.69 0-1.247.557-1.247 1.247v2.219c0 .69.557 1.246 1.247 1.246.69 0 1.246-.557 1.246-1.246v-2.22c0-.689-.557-1.246-1.246-1.246zM24.189 27.495c-.69 0-1.247.557-1.247 1.247v2.219c0 .69.557 1.246 1.247 1.246.69 0 1.246-.557 1.246-1.246v-2.22c0-.689-.557-1.246-1.246-1.246z"/>
        </g>
    </g>
</svg>
