<svg xmlns="http://www.w3.org/2000/svg" width="208" height="45" viewBox="0 0 208 45">
    <g fill="#000" fill-rule="nonzero">
        <g>
            <path d="M59.318 2.045v40.91H41.932V2.045h17.386zM39.886 1.023v42.954c0 .565.458 1.023 1.023 1.023h19.432c.565 0 1.023-.458 1.023-1.023V1.023C61.364.458 60.906 0 60.34 0H40.909c-.565 0-1.023.458-1.023 1.023z"/>
            <path d="M40.91 42.955H2.044V26.59h58.296a1.023 1.023 0 0 0 0-2.046H1.023c-.565 0-1.023.458-1.023 1.023v18.41C0 44.541.458 45 1.023 45h39.886a1.023 1.023 0 0 0 0-2.045z"/>
            <rect width="4.091" height="2.045" x="25.568" y="29.659" rx="1"/>
            <rect width="4.091" height="2.045" x="45" y="19.432" rx="1"/>
            <rect width="4.091" height="2.045" x="45" y="29.659" rx="1"/>
            <path d="M20.966 33.75H1.534a1.023 1.023 0 0 0 0 2.045h19.432a1.023 1.023 0 0 0 0-2.045z"/>
            <rect width="4.091" height="2.045" x="9.205" y="37.841" rx="1"/>
            <rect width="4.091" height="2.045" x="9.205" y="28.636" rx="1"/>
            <path d="M22.5 43.977v-24.55a3.069 3.069 0 0 1 6.136 0h2.046a5.114 5.114 0 0 0-10.227 0v24.55H22.5z"/>
            <rect width="6.136" height="2.045" x="12.273" y="21.477" rx="1"/>
            <rect width="6.136" height="2.045" x="4.091" y="21.477" rx="1"/>
        </g>
        <path d="M206.766 38.09h-21.811l6.352-24.026 15.14 3.995c.106.027.77.106 1.178-.301.31-.301.452-.735.363-1.16-1.178-5.794-9.222-14.928-14.351-16.266-6.21-1.62-16.965 3.004-20.518 7.07-.283.328-.38.77-.257 1.187.124.416.46.726.877.842l15.14 3.995-6.52 24.663h-10.675l-6.547-6.538a1.257 1.257 0 0 0-1.772 0 1.246 1.246 0 0 0 0 1.763l6.91 6.902c.23.23.55.363.886.363h.798l-1.4 2.578a1.246 1.246 0 0 0 .505 1.692 1.246 1.246 0 0 0 1.692-.505l2.046-3.774h6.902l-.753 2.861a1.247 1.247 0 0 0 .885 1.524c.107.027.213.044.32.044.549 0 1.062-.372 1.204-.93l.922-3.5h17.08l2.046 3.775c.328.602 1.09.833 1.692.505.603-.328.833-1.09.505-1.692l-1.4-2.578h2.543c.69 0 1.249-.558 1.249-1.25 0-.69-.54-1.24-1.231-1.24zM192.999 2.75c3.712 1.028 9.718 7.416 11.862 12.306l-28.251-7.45c3.596-2.685 11.835-6.122 16.389-4.855zM112.214 39.26c6.239 0 11.316-5.111 11.316-11.392 0-6.28-5.077-11.392-11.316-11.392-6.238 0-11.315 5.112-11.315 11.392 0 6.28 5.077 11.392 11.315 11.392zm0-20.286c4.444 0 8.122 3.322 8.73 7.627-2.174-.841-6.046-1.798-9.372.23-2.948 1.79-6.775.656-8.148.142.449-4.482 4.224-7.999 8.79-7.999zm.643 9.993c2.903-1.763 6.705-.293 8.06.336-.687 4.217-4.32 7.45-8.703 7.45-4.259 0-7.831-3.056-8.65-7.104 4.7 1.426 7.638.319 9.293-.682z"/>
        <path d="M129.117 0H95.311c-.686 0-1.24.558-1.24 1.249v42.502c0 .69.554 1.249 1.24 1.249h33.815c.687 0 1.241-.558 1.241-1.249V1.249A1.25 1.25 0 0 0 129.117 0zm-1.24 42.502H96.552V13.234h31.325v29.268zm0-31.766H96.552V2.498h31.325v8.238z"/>
        <path d="M100.274 7.61h.545c.687 0 1.241-.559 1.241-1.25 0-.69-.554-1.249-1.24-1.249h-.546c-.687 0-1.24.558-1.24 1.25 0 .69.553 1.248 1.24 1.248zM105.237 7.61h.545c.686 0 1.24-.559 1.24-1.25 0-.69-.554-1.249-1.24-1.249h-.545c-.687 0-1.241.558-1.241 1.25 0 .69.554 1.248 1.24 1.248zM123.61 7.61h.545c.686 0 1.24-.559 1.24-1.25 0-.69-.554-1.249-1.24-1.249h-.546c-.686 0-1.24.558-1.24 1.25 0 .69.554 1.248 1.24 1.248z"/>
    </g>
</svg>
