<svg xmlns="http://www.w3.org/2000/svg" width="129" height="45" viewBox="0 0 129 45">
    <g fill="#000" fill-rule="nonzero">
        <path d="M103.35 31.5l4.382-6.987zM128.456 43.224l-9.474-18.533c-.178-.415-.592-.533-1.066-.533h-7.105l2.783-4.56c.118-.177.237-.414.296-.591l.237-.415c0-.06.059-.118.059-.178 1.066-1.717 1.658-3.848 1.658-5.92C115.844 5.624 110.219 0 103.35 0c-6.868 0-12.493 5.625-12.493 12.493 0 2.132.533 4.264 1.658 6.158l.177.237c.119.237.237.533.356.71l2.783 4.56h-7.106c-.473 0-.888.178-1.065.533L78.127 43.4c-.178.356-.178.71.059 1.066.237.355.592.415 1.006.415h48.316c.652 0 1.184-.415 1.184-1.066 0-.296-.059-.415-.236-.592zM95.002 18.237l-.356-.533-.118-.296a10.212 10.212 0 0 1-1.303-4.974c0-5.566 4.56-10.125 10.125-10.125 5.566 0 10.125 4.56 10.125 10.184 0 1.718-.473 3.435-1.302 4.974v.06l-.178.295c-.06.119-.178.296-.237.415 0 0 0 .06-.059.06l-3.908 6.275-4.381 6.987-4.382-6.987-4.026-6.335zM81.087 42.513l8.349-15.987h7.875l5.033 7.935c.237.355.592.532 1.006.532.415 0 .77-.118 1.007-.473l5.033-7.994h7.875l8.348 15.987H81.087z"/>
        <path d="M109.33 13.382c0-.533-.355-1.066-.888-1.066h-.473c0-3.02-2.013-3.553-2.073-3.553h-4.915c-.058 0-2.071.533-2.071 3.553h-.474c-.533 0-.888.592-.888 1.066v3.079H99.265v1.184h1.184V16.46H106.37v1.184h1.184V16.46h1.777v-3.079zm-10.184 1.776a.657.657 0 0 1-.651-.651c0-.356.296-.652.651-.652.356 0 .71.237.71.592 0 .356-.354.71-.71.71zm7.224-2.842H100.449v-1.658c0-.415.355-.77.77-.77H105.659c.415 0 .77.355.77.77v1.658h-.059zm1.303 2.842a.657.657 0 0 1-.652-.651c0-.356.296-.652.652-.652.355 0 .651.296.651.652a.657.657 0 0 1-.651.65z"/>
        <g>
            <path d="M47.343 5.845L35.853.101c-.008-.004-.018-.002-.025-.006A.948.948 0 0 0 35.426 0a.948.948 0 0 0-.403.095c-.008.004-.018.002-.025.006L23.936 5.63 12.875.102c-.009-.004-.018-.002-.027-.007A.954.954 0 0 0 12.447 0a.94.94 0 0 0-.401.095c-.009.004-.019.002-.027.006L.529 5.846A.956.956 0 0 0 0 6.702v36.383a.96.96 0 0 0 1.385.857l11.062-5.531 11.061 5.53c.009.004.018.003.027.007a.94.94 0 0 0 .401.095.94.94 0 0 0 .401-.095c.009-.004.019-.003.027-.007l11.062-5.53 11.06 5.53a.95.95 0 0 0 .932-.041.959.959 0 0 0 .454-.815V6.702a.958.958 0 0 0-.53-.857zM33.51 19.15h.957v17.6l-9.574 4.787V26.809h.957a.957.957 0 1 0 0-1.915h-.957v-17.6l9.574-4.787v14.727h-.957a.957.957 0 1 0 0 1.915zm-20.107 1.915h2.873a.958.958 0 0 0 0-1.915h-2.873V2.507l9.575 4.787v17.6h-.958a.957.957 0 1 0 0 1.915h.958v14.727l-9.575-4.787V21.064zM1.914 7.294l9.575-4.787v16.642H8.617a.958.958 0 0 0 0 1.915h2.872v15.685l-9.574 4.787V7.294zm44.043 34.242l-9.574-4.787v-17.6h.957a.957.957 0 1 0 0-1.915h-.957V2.507l9.574 4.787v34.242z"/>
            <path d="M7.66 14.362a.958.958 0 0 0-1.915 0v3.83a.958.958 0 0 0 1.915 0v-3.83zM20.783 23.26l-1.915-1.916a.956.956 0 1 0-1.353 1.354l1.914 1.915a.955.955 0 0 0 1.354 0 .956.956 0 0 0 0-1.354zM30.919 19.43l-3.83 3.83a.956.956 0 1 0 1.354 1.353l3.83-3.83a.956.956 0 1 0-1.354-1.354zM39.816 18.191l-1.238 1.238a.956.956 0 1 0 1.354 1.354l1.238-1.238 1.238 1.238a.955.955 0 0 0 1.354 0 .956.956 0 0 0 0-1.354l-1.238-1.238 1.238-1.237a.956.956 0 1 0-1.354-1.354l-1.238 1.238-1.238-1.238a.956.956 0 1 0-1.354 1.354l1.238 1.237z"/>
        </g>
    </g>
</svg>
